<svg width="1744" height="1730" viewBox="0 0 1744 1730" fill="none" xmlns="http://www.w3.org/2000/svg">
<path d="M1084.91 1078.72C985.843 1375.63 721.203 1467.32 581.27 1098.54C562.027 1047.83 612.342 1028.95 647.529 1006.63C671.631 991.348 684.292 978.093 682.823 964.426C675.896 899.951 645.902 720.572 645.902 720.572L642.852 714.793C642.852 714.793 643.583 713.173 640.712 716.038C637.719 719.025 630.818 750.214 603.621 750.214C579.237 750.214 554.482 739.314 542.636 663.886C538.348 636.589 540.781 565.025 570.989 552.102C583.471 546.763 594.987 544.854 606.222 551.263C617.456 557.671 593.26 529.357 718.209 425.232C799.427 357.549 927.717 347.629 979.483 359.057C1031.25 370.484 1083.02 395.824 1105.91 449.483C1133.69 514.593 1080.03 563.759 1091.82 712.042C1089.67 765.617 1092.74 883.198 945.313 922.607C917.313 930.093 926 971 968 981C1035 1002 1084.96 1053.27 1084.96 1078.86" fill="white"/>
<path fill-rule="evenodd" clip-rule="evenodd" d="M1084.94 617.2L1085.1 615.806C1089.24 579.399 1093.26 544.118 1112.24 512.429C1118.7 516.85 1117.95 522.452 1115.93 527.643C1096.01 578.845 1097.84 632.04 1099.67 685.206C1099.83 689.863 1099.99 694.519 1100.14 699.174C1102.22 765.601 1085.65 825.988 1041.35 876.736C1025.98 894.348 1005.63 906.464 984.854 917.045C963.515 927.912 959.03 937.132 965.687 960.599C965.93 961.455 966.229 962.315 966.529 963.178C967.892 967.1 969.273 971.073 965.487 974.95C960.965 979.58 956.026 978.259 950.682 976.829C950.48 976.775 950.277 976.721 950.074 976.667C899.733 963.241 854.697 939.154 813.056 908.393C807.139 904.022 802.272 898.06 797.561 892.29L797.561 892.289L797.256 891.916C794.776 888.879 794.338 884.141 797.807 881.462C801.054 878.955 803.609 881.011 806.452 883.298C806.815 883.59 807.182 883.886 807.556 884.176C830.027 901.614 854.773 913.063 883.768 915.943C897.176 917.275 910.448 916.784 923.708 916.293H923.708H923.709C931.17 916.017 938.626 915.741 946.101 915.79C956.34 915.857 964.752 911.107 972.761 906.584C973.712 906.047 974.658 905.513 975.601 904.99C1003.45 889.545 1029.88 872.229 1047.84 844.331C1063.92 819.331 1073.66 792.1 1079.4 763.443C1086.65 727.27 1085.99 690.7 1085.32 653.621C1085.11 641.536 1084.89 629.397 1084.94 617.2ZM581.684 541.824C603.577 540.064 615.771 553.033 626.037 568.053C638.664 586.526 645.39 607.465 648.37 629.572C648.87 633.28 649.389 637.223 647.152 640.856C642.737 641.45 642.319 637.946 642.252 635.317C641.696 614.644 632.526 596.61 623.308 579.156C616.73 566.704 607.059 554.64 591.943 551.577C574.71 548.084 558.858 563.566 551.067 583.842C536.636 621.398 539.029 658.36 552.455 694.759C558.33 710.687 565.648 726.913 580.303 738.026C595.142 749.28 613.008 747.295 623.903 732.349C624.526 731.494 625.184 730.649 625.845 729.801L625.845 729.801L625.845 729.801C627.841 727.238 629.853 724.656 630.928 721.749C633.035 716.049 636.256 710.629 642.155 711.423C648.978 712.342 650.271 719.729 650.909 725.499C656.707 777.928 664.758 830.024 672.81 882.126L672.81 882.126C674.808 895.053 676.806 907.98 678.769 920.913C681.369 938.023 684.381 962.598 682.361 973.05C682.219 973.792 682.136 974.523 682.057 975.222C681.749 977.958 681.496 980.21 677.906 980.75C673.034 981.484 670.831 978.66 670.233 974.28C667.913 957.274 667.273 950.747 666.275 924.735C665.308 899.519 660.569 874.665 655.83 849.816L655.83 849.815C654.111 840.799 652.392 831.784 650.853 822.753C645.613 791.996 640.483 760.802 640.022 725.777C639.326 726.808 638.644 727.825 637.974 728.826C630.426 740.095 624.264 749.295 613.48 752.877C595.58 758.827 579.917 754.422 567.371 740.277C553.071 724.155 543.783 705.808 538.558 684.498C530.244 650.587 528.704 617.368 539.487 583.853C544.655 567.774 563.189 539.208 581.684 541.824ZM616.346 669.326C620.716 672.467 624.679 675.316 628.334 663.948C627.158 621.652 613.6 594.654 592.472 593.632C603.747 608.197 614.559 622.413 615.472 642.132C610.742 639.978 607.7 636.589 604.784 633.342C602.753 631.08 600.783 628.886 598.348 627.226C597.31 626.518 596.295 625.735 595.271 624.946C590.544 621.301 585.636 617.516 577.471 620.357C581.3 626.187 586.575 630.301 591.799 634.377C597.832 639.083 603.798 643.737 607.392 650.919C596.777 658.561 592.209 668.62 597.718 680.761C602.497 691.296 609.565 700 623.565 700.635C623.042 694.31 618.868 689.707 614.812 685.235C609.879 679.796 605.121 674.55 607.316 666.635C610.515 665.133 613.516 667.291 616.346 669.326Z" fill="black"/>
<path d="M1481 1613L194 1609.7C194 1609.7 231.543 1402.45 288.968 1281.01C414.881 1014.73 667.353 965.339 689.313 977.732C721.277 995.77 751.574 1018.42 840.707 1018.42C931.833 1018.42 989.51 978.919 989.51 978.919C989.51 978.919 1124.8 1011.21 1190.13 1048.42C1273.25 1095.76 1367.1 1235.43 1410.33 1344.26C1456.28 1459.92 1481 1613 1481 1613Z" fill="white"/>
<path fill-rule="evenodd" clip-rule="evenodd" d="M1474.76 1613C1468.46 1587.09 1462.96 1561.1 1457.46 1535.15C1454.7 1522.11 1451.94 1509.09 1449.09 1496.08C1441.06 1459.52 1430.53 1423.84 1419.02 1388.46C1407.57 1353.25 1394.1 1318.82 1376.97 1285.75C1374.6 1281.18 1372.26 1276.6 1369.91 1272.01C1361.15 1254.87 1352.38 1237.73 1342.41 1221.26C1315.01 1175.97 1284.27 1132.97 1245.44 1097.22C1215.46 1069.48 1180.75 1047.48 1143 1032.29C1136.02 1029.49 1129.18 1026.34 1122.33 1023.18C1114.41 1019.53 1106.46 1015.87 1098.26 1012.73C1087.74 1008.71 1083.9 1012.03 1079.51 1020.03C1071.46 1034.68 1061.58 1047.99 1046.65 1055.99C1006.32 1077.58 964.349 1089.21 920.135 1069.58C901.859 1061.47 884.882 1049.65 871.513 1034.17C865.558 1027.28 859.338 1025.87 851.001 1024.65C829.07 1021.43 814.338 1029.41 801.947 1047.85C785.703 1072.04 759.69 1080.97 732.479 1083.58C692.781 1087.4 656.728 1076.96 624.537 1051.78C608.019 1038.86 592.341 1025.6 579.882 1007.52C576.644 1009.09 573.416 1010.55 570.227 1011.99L570.227 1011.99C563.331 1015.12 556.618 1018.16 550.385 1022C540.757 1027.93 530.7 1033.01 520.635 1038.08C509.089 1043.9 497.532 1049.73 486.596 1056.87C454.746 1077.67 426.879 1102.68 401.162 1130.57C366.983 1167.64 338.862 1209.08 314.854 1253.39C295.784 1288.22 279.116 1324.34 264.968 1361.5C252.307 1395.15 240.562 1429.1 230.968 1463.59C221.697 1496.92 213.698 1530.84 210.692 1565.69C210.102 1572.54 208.578 1579.26 207.028 1586.1C205.147 1594.4 203.228 1602.87 202.894 1611.92C197.424 1612.99 192.265 1612.99 186 1612.99C190.541 1580 195.742 1546.93 202.01 1514.06C204.28 1502.17 207.277 1490.41 210.274 1478.66C212.091 1471.53 213.908 1464.41 215.564 1457.25C220.806 1434.58 228.189 1412.6 235.583 1390.6C235.886 1389.7 236.189 1388.79 236.491 1387.89C245.524 1360.99 255.445 1334.47 266.929 1308.55C282.2 1274.17 299.758 1240.88 319.482 1208.92C336.417 1181.69 355.522 1155.92 376.606 1131.85C413.95 1088.83 455.704 1051.56 506.644 1026.01C510.248 1024.2 513.848 1022.39 517.449 1020.57L517.458 1020.56C553.407 1002.4 589.411 984.218 629.484 976.427C640.535 974.278 651.564 971.841 662.405 968.812C675.118 965.259 677.554 959.699 672.742 947.658C672.449 946.926 672.111 946.202 671.773 945.477C671.018 943.857 670.262 942.237 670.014 940.54C669.99 940.38 669.966 940.217 669.941 940.054C669.404 936.48 668.781 932.336 673.813 931.205C678.076 930.246 679.27 932.784 680.847 936.137L680.847 936.138C681.025 936.518 681.209 936.908 681.402 937.304C682.963 940.506 684.409 943.756 685.853 947.004C690.676 957.847 695.487 968.664 704.536 977.567C721.497 994.249 742.288 1001.84 764.166 1004.76C765.944 1004.99 767.722 1005.23 769.501 1005.47L769.519 1005.47C794.304 1008.81 819.203 1012.15 844.531 1010.87C879.842 1009.08 914.698 1005.39 948.487 994.383C953.665 992.697 958.202 989.648 962.531 986.056C969.477 980.295 969.033 975.483 963.001 969.272C954.134 960.141 952.001 948.672 952.655 936.656C956.702 935.156 959.747 936.215 960.276 938.529C967.214 968.941 989.948 974.529 1016.15 977.479C1049.95 981.285 1082.25 991.809 1114.6 1002.55C1140.02 1011 1162.9 1024.05 1185.77 1037.1C1191.97 1040.65 1198.18 1044.19 1204.44 1047.64C1229.45 1061.42 1251.57 1079.73 1271.27 1100.83C1293.96 1125.14 1315.17 1150.86 1333.68 1178.38C1349.81 1202.35 1365.24 1226.97 1378.66 1252.86C1397 1288.26 1412.44 1324.8 1426.31 1362.13C1442.26 1405.38 1455.23 1449.7 1465.12 1494.78C1470.78 1520.34 1475.02 1546.23 1479.31 1572.4L1479.31 1572.4C1481.47 1585.56 1483.63 1598.78 1486 1612.07C1482.83 1613 1479.32 1613 1474.76 1613ZM751.116 1064.04C772.044 1057.42 789.319 1045.92 800.788 1026.32C797.948 1023.87 794.773 1023.34 791.633 1022.83C790.673 1022.67 789.717 1022.51 788.775 1022.3C782.22 1020.82 775.561 1019.63 768.9 1018.43C741.935 1013.57 714.959 1008.72 694.898 985.58C693.574 984.053 690.258 983.85 687.85 983.802C660.37 983.255 634.493 990.684 608.546 998.134L608.544 998.135C604.789 999.213 601.032 1000.29 597.269 1001.35C598.095 1006.95 599.941 1010.28 603.083 1013.49C615.016 1025.83 628.304 1036.74 642.687 1046.02C675.598 1067 710.559 1076.65 751.116 1064.04ZM975.059 1064.33C943.544 1068.61 917.977 1055.36 894.148 1036.72C892.539 1035.01 890.843 1033.7 889.24 1032.45C886.218 1030.1 883.522 1028.01 882.344 1024.07C892.43 1020.28 902.934 1018.26 913.428 1016.24C924.626 1014.09 935.812 1011.93 946.466 1007.64C948.168 1006.96 949.966 1006.38 951.766 1005.8C956.142 1004.4 960.532 1002.98 963.592 1000.02C980.299 983.833 999.764 984.409 1019.85 989.427C1032.85 992.677 1045.73 996.46 1059.34 1000.46C1065.49 1002.27 1071.78 1004.12 1078.31 1005.98C1076.39 1008.19 1074.52 1010.38 1072.68 1012.54C1058.57 1029.09 1046.06 1043.76 1025.84 1050.96C1009.12 1056.93 992.558 1061.95 975.059 1064.33Z" fill="black"/>
<path d="M1293.63 1613C1284.47 1576.14 1281.48 1538.29 1271.53 1501.79C1263.87 1473.7 1257.73 1445.01 1247.79 1417.77C1240.73 1398.41 1234.08 1378.7 1224.72 1360.04C1212.13 1334.99 1201.66 1308.83 1190.41 1283.09C1189.1 1280.09 1187.53 1276.7 1191.72 1274.17C1196.03 1271.57 1199.14 1273.69 1201.52 1276.84C1205.33 1281.89 1209.3 1287 1212.06 1292.66C1222.02 1313.1 1231.46 1333.83 1241.22 1354.34C1255.87 1385.15 1265.64 1417.57 1274.92 1450.02C1283.95 1481.63 1292.39 1513.57 1296.41 1546.58C1299.02 1568.04 1303.46 1589.29 1305 1611.98C1301.7 1613 1298.19 1613 1293.63 1613Z" fill="black"/>
<path d="M399.163 1613C398.617 1610.09 399.615 1607.18 399.612 1604.26C399.555 1554.71 409.194 1506.39 416.228 1457.65C421.281 1422.65 429.49 1388.52 438.745 1354.72C445.422 1330.33 456.579 1307.18 470.303 1285.7C472.635 1282.05 474.353 1275.74 480.301 1278.82C486.423 1282 483.518 1287.82 481.66 1292.39C474.492 1309.99 465.837 1327.07 459.914 1345.08C445.234 1390.21 434.877 1436.68 428.99 1483.85C427.866 1492.26 426.209 1500.59 424.03 1508.79C416.593 1537.32 420.249 1567.25 413.145 1595.84C411.976 1600.54 413.369 1605.91 413.374 1611.98C408.859 1613 404.549 1613 399.163 1613Z" fill="black"/>
<path fill-rule="evenodd" clip-rule="evenodd" d="M823.868 1086.54C814.962 1093.13 813.378 1102.23 820.341 1114.8C821.787 1115.67 823.086 1116.59 824.313 1117.45C826.562 1119.04 828.57 1120.45 830.798 1121.15C840.276 1124.09 847.704 1119.03 852.441 1111.96C857.123 1104.99 857.852 1095.11 850.548 1090.02C843.161 1084.87 833.905 1079.12 823.868 1086.54ZM829.314 1103.88C829.314 1103.88 829.314 1103.88 829.314 1103.88V1103.89C829.314 1103.89 829.314 1103.89 829.314 1103.88ZM829.314 1103.88C833.077 1106.66 836.917 1107.25 840.185 1103.39C840.884 1102.58 841.154 1101.48 840.91 1100.43C840.667 1099.38 839.941 1098.52 838.956 1098.1C834.579 1096.54 829.823 1095.48 829.314 1103.88Z" fill="black"/>
<path d="M574.303 311.808C595.756 282.784 623.371 262.755 652.423 244.207C664.82 236.294 677.212 228.771 691.409 225.243C702.242 222.544 704.574 216.009 700.952 206.493C695.521 192.222 697.975 178.324 700.811 163.958C706.611 134.594 729.982 132.092 751.761 147.924C753.087 148.887 754.494 149.734 755.946 150.689C764.345 143.511 763.202 131.913 769.387 123.728C777.363 113.171 785.164 104.381 799.892 106.253C812.901 107.907 817.355 118.171 822.006 127.971C828.148 140.912 828.717 154.987 828.581 169.169C828.501 177.518 827.336 186.021 829.805 195.665C848.344 187.935 867.218 183.572 885.665 177.915C918.604 167.808 951.892 168.038 985.67 168.896C1009.72 169.509 1032.59 175.392 1055.53 181.044C1072.13 185.153 1087.53 193.271 1100.41 204.716C1115.71 218.288 1115.81 230.402 1103.24 252.677C1105.43 257.947 1110.92 258.902 1115.11 261.134C1133.84 271.119 1145.96 286.62 1152.61 306.727C1160.05 329.181 1149.62 350.796 1127.92 358.716C1124.81 359.85 1121.75 361.143 1117.9 362.672C1121.72 371.26 1127.57 378.713 1128.89 388.018C1132.14 410.897 1115.55 432.572 1090.64 438.036C1056.46 445.537 1023.25 441.584 989.98 431.269C959.557 421.837 930.75 409.249 903.874 392.14C893.424 385.488 883.878 377.353 873.73 369.753C862.517 378.817 860.868 392.448 855.981 403.562C842.179 434.944 817.987 455.411 791.49 474.074C770.172 489.089 746.351 497.324 720.629 499.439C712.163 500.138 709.331 506.661 706.675 512.421C697.571 532.163 684.519 547.676 665.569 558.221C651.423 566.093 646.481 581.008 641.506 596C632.862 592.796 631.025 585.731 628.696 579.064C618.536 549.986 581.113 538.052 558.822 555.914C549.359 563.497 541.943 572.969 538.188 584.962C522.092 584.208 510.334 573.158 503.499 554.484C492.81 525.287 498.256 498.548 515.05 473.996C519.826 467.012 519.923 460.254 521.24 452.807C530.087 402.723 539.277 352.647 574.303 311.808Z" fill="black"/>
<path d="M979.204 821.438C952.468 832.73 926.552 833.863 901.111 820.915C894.711 817.66 889.204 818.536 882.511 821.631C879.568 812.01 878.751 803.676 885.478 796.145C887.403 793.991 889.367 791.092 892.886 792.356C896.014 793.479 897.936 796.397 897.073 799.456C895.114 806.401 900.603 807.193 904.473 809.149C931.29 822.698 957.145 817.838 982.616 804.984C986.545 803.001 986.529 800.003 986.278 796.436C986.013 792.682 987.123 789.45 991.565 789.217C996.096 788.978 999.175 791.617 999.465 795.887C999.953 803.04 999.598 810.249 999.598 818.673C992.173 816.197 985.843 817.176 979.204 821.438Z" fill="black"/>
<path d="M911.218 719.687C916.294 711.556 921.752 715.405 927.818 717.497C942.161 722.441 956.459 728.461 971.798 719.22C979.317 714.691 987.285 711.02 987.406 701.062C987.493 693.879 972.459 681.507 963.262 680.68C956.484 680.07 949.624 680.404 942.802 680.231C938.88 680.131 934.568 679.775 933.677 675.115C932.83 670.685 936.171 668.293 939.851 666.515C961.706 655.948 1008.13 674.897 1002.66 706.772C1001.06 716.135 988.303 732.224 978.98 734.209C961.68 737.892 944.341 738.192 927.136 733.968C919.912 732.192 914.044 728.052 911.218 719.687Z" fill="black"/>
<path d="M825.129 620.635C830.116 608.597 834.019 591.235 849.214 598.12C869.893 607.493 863.072 628.846 858.89 645.481C857.312 651.758 844.37 661.393 840.636 659.837C824.348 653.046 821.371 638.095 825.129 620.635Z" fill="black"/>
<path d="M1051.96 657.426C1043.38 664.882 1034.99 665.026 1029.82 655.926C1020.7 639.887 1021.2 623.101 1033.14 608.686C1035.63 605.675 1046.89 605.056 1049.42 607.744C1063.36 622.605 1063.96 639.46 1051.96 657.426Z" fill="black"/>
<path fill-rule="evenodd" clip-rule="evenodd" d="M936.086 558.281L936.091 558.281C988.115 558.626 1039.33 558.965 1090.54 559.379C1095.22 559.534 1099.88 559.946 1104.51 560.613C1111.63 561.461 1114.91 564.8 1116.49 572.645C1122.72 603.494 1119.29 633.659 1110.22 663.034C1104.76 680.708 1090.23 691.104 1072.67 696.575C1049.74 703.719 1026.22 708.951 1002.87 700.475C982.13 692.945 965.693 680.48 960.014 656.539C959.303 653.544 958.415 650.608 957.53 647.683L957.53 647.683C955.016 639.372 952.532 631.162 954.257 622.009C954.996 618.085 951.195 616.147 948.208 614.625L948.178 614.609C933.188 606.963 918.478 614.418 915.77 631.087C912.8 649.375 906.77 666.896 896.409 681.877C879.865 705.791 854.759 711.261 827.4 708.024C805.853 705.474 787.236 696.436 771.2 681.436C756.85 668.014 749.583 651.894 751.124 632.641C752.024 621.435 745.703 616.341 737.424 614.931C723.108 612.491 709.839 607.084 696.64 601.707L696.64 601.707C691.89 599.772 687.149 597.84 682.373 596.052C675.181 593.361 667.874 591.068 660.573 588.776L660.573 588.776C652.535 586.254 644.504 583.733 636.643 580.686C636.287 580.549 635.935 580.417 635.588 580.286L635.587 580.286C631.77 578.856 628.565 577.655 629.191 571.821C634.893 569.16 640.13 570.868 645.555 572.636C649.145 573.807 652.816 575.004 656.759 574.979C654.074 565.998 648.481 562.606 639.498 562.208C628.724 561.73 619.098 558.031 611.968 549.033C616.742 544.381 620.995 544.713 625.149 545.84C646.516 551.639 668.346 554.926 690.183 558.215C708.176 560.925 726.175 563.636 743.922 567.752C754.208 570.137 765.261 570.18 774.962 561.33C781.178 555.658 790.446 555.846 798.931 556.018C799.98 556.04 801.018 556.061 802.037 556.07C827.29 556.306 852.539 556.861 878.238 557.425L878.239 557.425C888.89 557.659 899.618 557.895 910.456 558.11C919.023 558.167 927.565 558.224 936.086 558.281ZM760.356 623.971C763.719 665.682 787.103 686.956 823.136 694.965C846.709 700.205 875.409 695.103 889.946 668.185C898.129 653.032 902.768 637.045 906.959 620.601C910.83 605.408 921.194 600.555 942.6 602.34C956.894 603.532 963.476 610.184 965.4 624.805C966.843 635.764 968.476 646.705 970.421 657.589C972.877 671.337 989.854 687.913 1003.73 690.698C1025.07 695.112 1047.22 693.481 1067.68 685.99C1079.66 681.651 1090.59 675.619 1096.36 662.996C1106.44 640.947 1109.45 617.71 1109.14 593.78C1108.85 571.859 1107.52 570.38 1084.84 570.29C1070.75 570.234 1056.66 570.251 1042.56 570.267C1023.03 570.29 1003.49 570.313 983.955 570.142C958.981 569.925 934.008 569.604 909.035 569.283L909.034 569.283C879.978 568.91 850.921 568.536 821.864 568.325C818.382 568.3 814.788 567.963 811.177 567.624C800.435 566.615 789.534 565.591 780.937 572.725C771.995 580.143 763.102 580.12 753.534 580.095H753.533C752.385 580.092 751.227 580.089 750.058 580.099C747.558 580.121 745.094 579.606 742.603 579.087C738.399 578.21 734.118 577.316 729.458 578.953C730.779 593.769 734.15 606.719 751.399 610.178C757.747 611.448 761.123 615.009 760.352 623.971H760.356ZM684.546 570.56C693.39 569.411 701.56 568.35 704.44 581.114H704.436C705.954 585.856 707.095 588.844 708.496 592.515L708.515 592.562C695.509 589.793 685.342 584.841 680.387 571.051C681.778 570.92 683.17 570.739 684.546 570.56Z" fill="black"/>
<path d="M896.905 588.754C896.231 582.754 900.033 581.42 903.921 581.408C922.994 581.35 942.074 581.424 961.138 581.922C965.486 581.943 969.579 583.983 972.214 587.442C965.312 595.5 918.64 596.826 896.905 588.754Z" fill="black"/>
<path d="M881.481 555.642C885.824 561.184 895.928 563.762 889.832 572.363C883.97 580.634 874.241 581.063 865.504 578.831C856.024 576.531 846.903 572.942 838.396 568.165C826.268 561.104 815.276 562.005 803.558 568.415C797.049 571.975 787.545 578.15 783.183 570.25C778.1 561.05 790.275 558.896 795.968 554.89C814.083 542.142 834.807 540.842 855.914 542.673C865.581 543.512 872.72 550.389 881.481 555.642Z" fill="black"/>
<path d="M1005.23 565.172C1021.09 557.767 1035.92 550.415 1053.38 552.545C1064.86 553.791 1075.5 559.17 1083.31 567.679C1086.28 570.841 1088.5 575.208 1084.8 579.068C1081.19 582.84 1076.18 583.626 1072.32 579.497C1062.36 568.844 1052.01 571.15 1041.62 578.148C1032.58 584.231 1022.03 583.588 1012.18 584.462C1001.45 585.414 998.781 577.858 1005.23 565.172Z" fill="black"/>
</svg>
